<?xml version="1.0" encoding="UTF-8"?>
<svg id="Layer_2" data-name="Layer 2" xmlns="http://www.w3.org/2000/svg" viewBox="0 0 43.84 39.46">
  <defs>
    <style>
      .cls-1 {
        fill: #000000;
      }
    </style>
  </defs>
  <g id="Layer_1-2" data-name="Layer 1">
    <path class="cls-1" d="m17.54,23.9v-6.37h8.77v6.37c0,.49-.24.94-.65,1.22l-3.73,2.49-3.73-2.49c-.41-.27-.65-.73-.65-1.22Zm-4.38-10.75v10.75c0,1.95.98,3.78,2.6,4.86l6.17,4.11,6.17-4.11c1.63-1.08,2.6-2.91,2.6-4.86v-10.75H13.15Zm9.68-8.77h18.82c1.21,0,2.19.98,2.19,2.19v30.69c0,1.21-.98,2.19-2.19,2.19H2.19c-1.21,0-2.19-.98-2.19-2.19V2.19C0,.98.98,0,2.19,0h16.25l4.38,4.38Z"/>
  </g>
</svg>
