<?xml version="1.0" encoding="UTF-8"?>
<svg id="Layer_2" data-name="Layer 2" xmlns="http://www.w3.org/2000/svg" viewBox="0 0 213.08 48.34">
  <defs>
    <style>
      .cls-1 {
        fill: #000000;
      }
    </style>
  </defs>
  <g id="Layer_1-2" data-name="Layer 1">
    <g>
      <path d="m13.36,38.42c-.33.72-.77,1.33-1.32,1.83s-1.21.89-1.98,1.17-1.61.41-2.54.41c-.73,0-1.41-.1-2.03-.29-.62-.19-1.18-.47-1.68-.82-.46-.33-.86-.74-1.21-1.21-.35-.47-.65-.99-.9-1.56-.24-.57-.42-1.2-.54-1.88-.13-.68-.19-1.41-.19-2.17v-2.39c0-.72.06-1.4.17-2.04.11-.65.28-1.25.51-1.8.26-.68.6-1.28,1.03-1.81.42-.53.9-.98,1.44-1.34.48-.31,1.01-.55,1.58-.71.57-.17,1.19-.25,1.85-.25.98,0,1.85.14,2.61.41.76.28,1.41.67,1.95,1.18s.96,1.14,1.27,1.88c.31.74.5,1.57.59,2.5h-3.42c-.03-.53-.11-.99-.24-1.39-.13-.4-.31-.73-.54-1-.24-.26-.55-.46-.91-.59-.36-.13-.79-.2-1.3-.2-.27,0-.52.03-.75.09-.23.06-.45.14-.64.26-.33.2-.62.47-.85.84-.23.36-.42.78-.55,1.26-.11.37-.18.79-.23,1.24-.05.45-.07.94-.07,1.46v2.42c0,.71.04,1.34.12,1.9.08.56.2,1.04.36,1.46.11.29.25.54.41.76.16.22.34.4.54.55.22.16.47.28.74.36.27.08.58.12.91.12.45,0,.85-.06,1.21-.17.36-.11.66-.29.92-.54s.45-.56.6-.94c.15-.38.24-.84.27-1.38h3.43c-.06.9-.25,1.7-.58,2.42Z"/>
      <path d="m28.57,36.17c-.14.69-.34,1.32-.6,1.91-.28.59-.62,1.12-1.03,1.61-.41.49-.87.9-1.39,1.22-.47.29-.99.51-1.56.67-.57.16-1.17.24-1.83.24-.69,0-1.33-.09-1.92-.27s-1.12-.43-1.6-.76c-.47-.34-.9-.75-1.27-1.24-.37-.48-.69-1.03-.94-1.64-.23-.56-.4-1.17-.52-1.83-.12-.66-.18-1.35-.18-2.09v-2.59c0-.78.07-1.52.2-2.22.13-.7.33-1.35.59-1.94.25-.56.56-1.07.92-1.53.36-.46.78-.85,1.25-1.17.46-.32.98-.56,1.56-.73.58-.17,1.2-.26,1.88-.26s1.32.09,1.92.26c.6.17,1.14.42,1.62.75.48.31.9.68,1.26,1.12.36.44.67.92.93,1.45.28.6.5,1.26.65,1.98.15.72.23,1.48.23,2.28v2.59c0,.76-.07,1.49-.21,2.18Zm-3.34-6.09c-.04-.41-.12-.79-.21-1.14-.12-.44-.29-.83-.49-1.18-.2-.35-.44-.63-.72-.85-.22-.16-.47-.29-.74-.38s-.58-.13-.91-.13-.6.04-.86.12c-.26.08-.49.2-.69.35-.28.23-.51.51-.7.85-.19.34-.34.74-.45,1.2-.08.35-.14.73-.18,1.15-.04.42-.05.85-.05,1.31v2.61c0,.43.02.85.05,1.24.03.4.09.77.17,1.11.09.43.22.82.4,1.18.17.35.38.64.62.86.22.2.47.35.75.45.28.11.6.16.96.16s.66-.05.94-.15c.28-.1.54-.24.76-.43.28-.23.51-.51.7-.86.19-.35.34-.74.46-1.18.09-.34.16-.72.2-1.12.04-.41.07-.83.07-1.27v-2.61c0-.46-.02-.89-.07-1.3Z"/>
      <path d="m31.06,23.79h4.6c.82,0,1.59.1,2.31.3.72.2,1.37.48,1.95.85.51.3.97.67,1.37,1.1.4.44.75.91,1.06,1.42.35.63.62,1.32.81,2.08.19.76.29,1.56.29,2.42v1.46c0,.82-.09,1.6-.27,2.33-.18.73-.43,1.4-.76,2.01-.31.55-.67,1.05-1.09,1.51-.42.46-.87.84-1.37,1.15-.58.37-1.21.65-1.91.84-.7.2-1.44.29-2.23.29h-4.77v-17.77Zm3.46,15.01h1.32c.42,0,.82-.05,1.18-.16.37-.11.7-.26,1-.46.31-.21.59-.48.84-.81.25-.33.46-.71.64-1.15.15-.38.26-.81.34-1.28.08-.47.12-.97.12-1.52v-1.49c0-.51-.04-1-.12-1.46-.08-.46-.19-.88-.34-1.26-.18-.46-.41-.86-.7-1.22s-.62-.65-1.01-.88c-.29-.17-.62-.3-.97-.4-.35-.09-.74-.14-1.15-.14h-1.15v12.23Z"/>
      <path d="m49.54,33.78v5.02h8.53v2.77h-11.98v-17.77h11.94v2.79h-8.5v4.48h7.3v2.71h-7.3Z"/>
      <path d="m64.33,41.57h-3.43v-17.77h6.08c.97,0,1.84.14,2.62.42.78.28,1.45.67,2,1.17.54.5.97,1.11,1.26,1.81s.45,1.48.45,2.33c0,.8-.15,1.53-.45,2.21s-.72,1.26-1.26,1.75c-.55.5-1.22.88-2,1.16s-1.66.42-2.62.42h-2.65v6.52Zm2.65-9.3c.49,0,.91-.07,1.27-.22.36-.15.66-.35.9-.6.24-.25.41-.54.53-.87.12-.33.18-.67.18-1.03,0-.42-.06-.8-.18-1.16-.12-.36-.29-.67-.53-.94-.24-.27-.55-.48-.9-.63-.36-.16-.78-.23-1.27-.23h-2.65v5.69h2.65Z"/>
      <path d="m78.89,34.93v6.64h-3.43v-17.77h5.96c.98,0,1.88.12,2.67.35.8.23,1.48.57,2.05,1.02.56.45,1,1,1.3,1.67.31.67.46,1.44.46,2.32,0,.63-.08,1.21-.23,1.71s-.36.96-.64,1.36c-.29.41-.62.76-1.02,1.06s-.84.56-1.32.78l3.82,7.34v.16h-3.67l-3.34-6.64h-2.6Zm2.54-2.78c.53,0,1-.08,1.4-.23.4-.15.73-.37.98-.65.21-.23.37-.5.48-.82.11-.32.17-.67.17-1.06,0-.47-.07-.89-.21-1.25-.14-.36-.36-.66-.64-.9-.25-.21-.56-.37-.93-.49s-.79-.17-1.26-.17h-2.53v5.57h2.54Z"/>
      <path d="m102.43,36.17c-.14.69-.34,1.32-.6,1.91-.28.59-.62,1.12-1.03,1.61-.41.49-.87.9-1.39,1.22-.47.29-.99.51-1.56.67-.57.16-1.17.24-1.83.24-.69,0-1.33-.09-1.92-.27s-1.12-.43-1.6-.76c-.47-.34-.9-.75-1.27-1.24-.37-.48-.69-1.03-.94-1.64-.23-.56-.4-1.17-.52-1.83-.12-.66-.18-1.35-.18-2.09v-2.59c0-.78.07-1.52.2-2.22.13-.7.33-1.35.59-1.94.25-.56.56-1.07.92-1.53.36-.46.78-.85,1.25-1.17.46-.32.98-.56,1.56-.73.58-.17,1.2-.26,1.88-.26s1.32.09,1.92.26c.6.17,1.14.42,1.62.75.48.31.9.68,1.26,1.12.36.44.67.92.93,1.45.28.6.5,1.26.65,1.98.15.72.23,1.48.23,2.28v2.59c0,.76-.07,1.49-.21,2.18Zm-3.34-6.09c-.04-.41-.12-.79-.21-1.14-.12-.44-.29-.83-.49-1.18-.2-.35-.44-.63-.72-.85-.22-.16-.47-.29-.74-.38s-.58-.13-.91-.13-.6.04-.86.12c-.26.08-.49.2-.69.35-.28.23-.51.51-.7.85-.19.34-.34.74-.45,1.2-.08.35-.14.73-.18,1.15-.04.42-.05.85-.05,1.31v2.61c0,.43.02.85.05,1.24.03.4.09.77.17,1.11.09.43.22.82.4,1.18.17.35.38.64.62.86.22.2.47.35.75.45.28.11.6.16.96.16s.66-.05.94-.15c.28-.1.54-.24.76-.43.28-.23.51-.51.7-.86.19-.35.34-.74.46-1.18.09-.34.16-.72.2-1.12.04-.41.07-.83.07-1.27v-2.61c0-.46-.02-.89-.07-1.3Z"/>
      <path d="m112.57,26.59v14.98h-3.44v-14.98h-5.41v-2.79h14.33v2.79h-5.48Z"/>
      <path d="m123.38,33.78v5.02h8.53v2.77h-11.97v-17.77h11.94v2.79h-8.5v4.48h7.3v2.71h-7.3Z"/>
      <path d="m146.28,38.42c-.33.72-.77,1.33-1.32,1.83s-1.21.89-1.98,1.17-1.61.41-2.54.41c-.73,0-1.41-.1-2.03-.29-.62-.19-1.18-.47-1.68-.82-.46-.33-.86-.74-1.21-1.21-.35-.47-.65-.99-.9-1.56-.24-.57-.42-1.2-.54-1.88-.13-.68-.19-1.41-.19-2.17v-2.39c0-.72.06-1.4.17-2.04.11-.65.28-1.25.51-1.8.26-.68.6-1.28,1.03-1.81.42-.53.9-.98,1.44-1.34.48-.31,1.01-.55,1.58-.71.57-.17,1.19-.25,1.85-.25.98,0,1.85.14,2.61.41.76.28,1.41.67,1.95,1.18s.96,1.14,1.27,1.88c.31.74.5,1.57.59,2.5h-3.42c-.03-.53-.11-.99-.24-1.39-.13-.4-.31-.73-.54-1-.24-.26-.55-.46-.91-.59-.36-.13-.79-.2-1.3-.2-.27,0-.52.03-.75.09-.23.06-.45.14-.64.26-.33.2-.62.47-.85.84-.23.36-.42.78-.55,1.26-.11.37-.18.79-.23,1.24-.05.45-.07.94-.07,1.46v2.42c0,.71.04,1.34.12,1.9.08.56.2,1.04.36,1.46.11.29.25.54.41.76.16.22.34.4.54.55.22.16.47.28.74.36.27.08.58.12.91.12.45,0,.85-.06,1.21-.17.36-.11.66-.29.92-.54s.45-.56.6-.94c.15-.38.24-.84.27-1.38h3.43c-.06.9-.25,1.7-.58,2.42Z"/>
      <path d="m156.88,26.59v14.98h-3.44v-14.98h-5.41v-2.79h14.33v2.79h-5.48Z"/>
    </g>
    <g>
      <path d="m100.41,5.89h1.9l.13,1.35c.13-.18.27-.35.43-.51.16-.15.32-.29.5-.42.28-.19.59-.34.92-.45s.69-.16,1.05-.16c.49,0,.93.07,1.34.21s.75.36,1.04.67.51.69.67,1.16c.16.47.24,1.04.24,1.71v5.93h-2.1v-5.9c0-.39-.04-.72-.13-.98s-.22-.47-.39-.63-.38-.27-.62-.34c-.24-.07-.52-.1-.83-.1-.26,0-.5.03-.72.1-.22.07-.42.16-.61.29-.14.09-.27.21-.4.34s-.23.28-.33.44v6.79h-2.1V5.89Z"/>
      <path d="m111.66,19.19c-.18-.03-.36-.07-.53-.11l.29-1.64c.12,0,.25.01.4.02.15,0,.27.01.36.01.21,0,.39-.06.55-.18.16-.12.31-.26.43-.41.12-.15.21-.29.29-.4s.14-.24.21-.37l.6-1.13-4.05-9.09h2.31l2.36,5.81.33,1.05.4-1.02,2.29-5.84h2.33l-4.83,10.95c-.11.25-.25.51-.42.79-.17.28-.38.53-.63.77-.25.24-.55.44-.9.6-.35.16-.75.24-1.21.24-.21,0-.4-.02-.58-.05Z"/>
      <path d="m127.21,1.9v11.76h2.88v1.74h-8.01v-1.74h3.01V3.65h-3.01v-1.75h5.12Z"/>
      <path d="m139.89,5.78c.32.05.57.1.75.17l-.3,2.07c-.32-.07-.64-.12-.95-.16s-.62-.05-.94-.05c-.35,0-.67.04-.95.11s-.53.18-.75.33c-.23.14-.43.32-.6.54s-.3.47-.41.75v5.87h-2.1V5.89h1.97l.09,1.32v.22c.4-.53.86-.95,1.4-1.26s1.14-.46,1.8-.46c.34,0,.67.02.99.07Z"/>
      <path d="m148.49,5.89v7.77h2.79v1.74h-7.84v-1.74h2.93v-6.02h-2.93v-1.75h5.04Zm-2.22-2.93c.06-.14.14-.27.25-.37.11-.1.23-.18.38-.23s.32-.08.51-.08c.32,0,.57.08.77.24s.31.37.34.62c.04.26,0,.48-.13.67-.13.19-.32.32-.56.38-.12.11-.27.18-.44.22s-.36.02-.56-.04c-.21-.06-.37-.18-.48-.35-.11-.17-.16-.36-.16-.58,0-.17.03-.33.09-.47Z"/>
      <path d="m153.52,8.63c.2-.59.49-1.1.87-1.53.38-.43.83-.77,1.38-1.02s1.17-.37,1.86-.37,1.32.12,1.87.37,1.01.59,1.39,1.02c.38.43.66.95.86,1.53.2.59.3,1.23.3,1.92v.18c0,.7-.1,1.34-.3,1.92s-.49,1.1-.86,1.53-.84.77-1.38,1.02-1.17.37-1.86.37-1.32-.12-1.87-.37-1.01-.59-1.39-1.02c-.38-.43-.67-.94-.87-1.53s-.3-1.23-.3-1.92v-.18c0-.69.1-1.33.3-1.92Zm1.94,3.32c.09.38.23.71.43,1,.19.29.43.51.72.68.29.17.64.25,1.05.25s.74-.08,1.03-.25c.29-.17.53-.39.72-.68s.33-.62.42-1,.14-.79.14-1.21v-.18c0-.42-.05-.81-.14-1.2s-.23-.71-.41-1c-.19-.29-.44-.52-.73-.69s-.64-.25-1.04-.25-.74.08-1.03.25-.53.4-.72.69c-.19.29-.34.62-.43,1s-.14.78-.14,1.2v.18c0,.43.04.83.14,1.21Z"/>
    </g>
    <path class="cls-1" d="m186.77,26.02v-6.37h8.77v6.37c0,.49-.24.94-.65,1.22l-3.73,2.49-3.73-2.49c-.41-.27-.65-.73-.65-1.22Zm-4.38-10.75v10.75c0,1.95.98,3.78,2.6,4.86l6.17,4.11,6.17-4.11c1.63-1.08,2.6-2.91,2.6-4.86v-10.75h-17.54Zm9.68-8.77h18.82c1.21,0,2.19.98,2.19,2.19v30.69c0,1.21-.98,2.19-2.19,2.19h-39.46c-1.21,0-2.19-.98-2.19-2.19V4.31c0-1.21.98-2.19,2.19-2.19h16.25l4.38,4.38Z"/>
  </g>
</svg>