<?xml version="1.0" encoding="UTF-8"?>
<svg id="Layer_2" data-name="Layer 2" xmlns="http://www.w3.org/2000/svg" viewBox="0 0 212.89 39.46">
  <defs>
    <style>
      .cls-1 {
        fill: #fff;
      }
    </style>
  </defs>
  <g id="Layer_1-2" data-name="Layer 1">
    <g>
      <path class="cls-1" d="m63.55,27.27c-.33.72-.77,1.33-1.32,1.83-.55.5-1.21.89-1.98,1.17-.77.27-1.61.41-2.54.41-.73,0-1.41-.1-2.03-.29-.62-.19-1.18-.47-1.68-.82-.46-.33-.86-.74-1.21-1.21-.35-.47-.65-.99-.9-1.56-.24-.57-.42-1.2-.54-1.88s-.19-1.41-.19-2.17v-2.39c0-.72.06-1.4.17-2.04.11-.65.29-1.25.51-1.8.26-.68.6-1.28,1.03-1.81s.9-.98,1.44-1.34c.48-.31,1.01-.55,1.58-.71.57-.17,1.19-.25,1.85-.25.98,0,1.84.14,2.61.41.76.28,1.41.67,1.95,1.18s.96,1.14,1.27,1.88.5,1.57.59,2.5h-3.42c-.03-.53-.11-.99-.24-1.39-.13-.4-.31-.73-.54-1-.24-.26-.55-.46-.91-.59-.36-.13-.8-.2-1.3-.2-.27,0-.52.03-.75.09-.23.06-.45.14-.64.26-.33.2-.62.47-.85.84-.23.36-.42.78-.56,1.26-.11.37-.18.79-.23,1.24-.05.45-.07.94-.07,1.46v2.42c0,.71.04,1.34.12,1.9.08.56.2,1.04.36,1.46.11.29.25.54.41.76.16.22.34.4.54.55.22.16.47.28.74.36.27.08.58.12.91.12.45,0,.85-.06,1.21-.17s.66-.29.92-.54c.25-.24.45-.56.6-.94.15-.38.24-.84.27-1.38h3.43c-.06.9-.25,1.7-.58,2.42Z"/>
      <path class="cls-1" d="m78.76,25.02c-.14.69-.34,1.32-.6,1.91-.28.59-.62,1.12-1.03,1.61s-.87.9-1.39,1.22c-.47.29-.99.51-1.56.67-.57.16-1.17.24-1.83.24-.69,0-1.33-.09-1.92-.27s-1.12-.43-1.6-.76c-.47-.34-.9-.75-1.27-1.24-.38-.48-.69-1.03-.94-1.64-.23-.56-.4-1.17-.52-1.83s-.18-1.35-.18-2.09v-2.59c0-.78.07-1.52.2-2.22.13-.7.33-1.35.59-1.94.25-.56.56-1.07.92-1.53.36-.46.78-.85,1.25-1.17.46-.32.98-.56,1.56-.73.58-.17,1.2-.26,1.88-.26s1.33.09,1.92.26c.6.17,1.14.42,1.62.75.48.31.9.68,1.26,1.12s.67.92.93,1.45c.29.6.5,1.26.65,1.98s.23,1.48.23,2.28v2.59c0,.76-.07,1.49-.21,2.18Zm-3.34-6.09c-.04-.41-.12-.79-.21-1.14-.12-.44-.29-.83-.49-1.18-.2-.35-.44-.63-.72-.85-.22-.16-.47-.29-.74-.38-.27-.09-.58-.13-.91-.13s-.6.04-.86.12c-.26.08-.49.2-.69.35-.28.23-.51.51-.7.85s-.34.74-.45,1.2c-.08.35-.14.73-.18,1.15-.04.42-.06.85-.06,1.31v2.61c0,.43.02.85.05,1.24.03.4.09.77.17,1.11.09.43.22.82.4,1.18.17.35.38.64.62.86.22.2.47.35.75.45.28.11.6.16.96.16s.65-.05.94-.15.54-.24.76-.43c.28-.23.51-.51.7-.86s.34-.74.46-1.18c.09-.34.16-.72.2-1.12.04-.41.07-.83.07-1.27v-2.61c0-.46-.02-.89-.07-1.3Z"/>
      <path class="cls-1" d="m81.24,12.65h4.6c.82,0,1.59.1,2.31.3.72.2,1.37.48,1.95.85.51.3.97.67,1.37,1.1.4.44.75.91,1.06,1.42.35.63.62,1.32.81,2.08.19.76.29,1.56.29,2.42v1.46c0,.82-.09,1.6-.27,2.33s-.43,1.4-.76,2.01c-.31.55-.67,1.05-1.09,1.51-.42.46-.87.84-1.37,1.15-.58.37-1.21.65-1.91.84-.7.2-1.44.29-2.23.29h-4.77V12.65Zm3.45,15.01h1.32c.42,0,.82-.05,1.18-.16.37-.11.7-.26,1-.46.31-.21.59-.48.84-.81.25-.33.46-.71.64-1.15.15-.38.26-.81.34-1.28s.12-.97.12-1.52v-1.49c0-.51-.04-1-.12-1.46s-.19-.88-.34-1.26c-.18-.46-.41-.86-.7-1.22-.29-.36-.62-.65-1.01-.88-.29-.17-.62-.3-.97-.4-.35-.09-.74-.14-1.15-.14h-1.15v12.23Z"/>
      <path class="cls-1" d="m99.73,22.64v5.02h8.53v2.77h-11.97V12.65h11.94v2.79h-8.5v4.48h7.3v2.71h-7.3Z"/>
      <path class="cls-1" d="m114.52,30.42h-3.43V12.65h6.08c.97,0,1.84.14,2.62.42.78.28,1.45.67,2,1.17.54.5.97,1.11,1.26,1.81.3.7.45,1.48.45,2.33,0,.8-.15,1.53-.45,2.21-.3.68-.72,1.26-1.26,1.75-.55.5-1.22.88-2,1.16s-1.66.42-2.62.42h-2.65v6.52Zm2.65-9.3c.49,0,.91-.07,1.27-.22s.66-.35.9-.6c.24-.25.41-.54.53-.87.12-.33.18-.67.18-1.03,0-.42-.06-.8-.18-1.16s-.29-.67-.53-.94c-.24-.27-.54-.48-.9-.63-.36-.16-.78-.23-1.27-.23h-2.65v5.69h2.65Z"/>
      <path class="cls-1" d="m129.08,23.78v6.64h-3.43V12.65h5.96c.98,0,1.88.12,2.67.35.8.23,1.48.57,2.05,1.02.56.45,1,1,1.3,1.67.31.67.46,1.44.46,2.32,0,.63-.08,1.21-.23,1.71-.15.51-.37.96-.64,1.36-.29.41-.62.76-1.02,1.06-.4.3-.84.56-1.33.78l3.82,7.34v.16h-3.67l-3.34-6.64h-2.6Zm2.54-2.78c.53,0,1-.08,1.4-.23.4-.15.73-.37.98-.65.21-.23.37-.5.48-.82.11-.32.17-.67.17-1.06,0-.47-.07-.89-.21-1.25s-.36-.66-.64-.9c-.25-.21-.56-.37-.93-.49s-.79-.17-1.26-.17h-2.53v5.57h2.54Z"/>
      <path class="cls-1" d="m152.62,25.02c-.14.69-.34,1.32-.6,1.91-.28.59-.62,1.12-1.03,1.61s-.87.9-1.39,1.22c-.47.29-.99.51-1.56.67-.57.16-1.17.24-1.83.24-.69,0-1.33-.09-1.92-.27s-1.12-.43-1.6-.76c-.47-.34-.9-.75-1.27-1.24-.38-.48-.69-1.03-.94-1.64-.23-.56-.4-1.17-.52-1.83s-.18-1.35-.18-2.09v-2.59c0-.78.07-1.52.2-2.22.13-.7.33-1.35.59-1.94.25-.56.56-1.07.92-1.53.36-.46.78-.85,1.25-1.17.46-.32.98-.56,1.56-.73.58-.17,1.2-.26,1.88-.26s1.33.09,1.92.26c.6.17,1.14.42,1.62.75.48.31.9.68,1.26,1.12s.67.92.93,1.45c.29.6.5,1.26.65,1.98s.23,1.48.23,2.28v2.59c0,.76-.07,1.49-.21,2.18Zm-3.34-6.09c-.04-.41-.12-.79-.21-1.14-.12-.44-.29-.83-.49-1.18-.2-.35-.44-.63-.72-.85-.22-.16-.47-.29-.74-.38-.27-.09-.58-.13-.91-.13s-.6.04-.86.12c-.26.08-.49.2-.69.35-.28.23-.51.51-.7.85s-.34.74-.45,1.2c-.08.35-.14.73-.18,1.15-.04.42-.06.85-.06,1.31v2.61c0,.43.02.85.05,1.24.03.4.09.77.17,1.11.09.43.22.82.4,1.18.17.35.38.64.62.86.22.2.47.35.75.45.28.11.6.16.96.16s.65-.05.94-.15.54-.24.76-.43c.28-.23.51-.51.7-.86s.34-.74.46-1.18c.09-.34.16-.72.2-1.12.04-.41.07-.83.07-1.27v-2.61c0-.46-.02-.89-.07-1.3Z"/>
      <path class="cls-1" d="m162.76,15.44v14.98h-3.44v-14.98h-5.41v-2.79h14.33v2.79h-5.48Z"/>
      <path class="cls-1" d="m173.57,22.64v5.02h8.53v2.77h-11.98V12.65h11.94v2.79h-8.5v4.48h7.3v2.71h-7.3Z"/>
      <path class="cls-1" d="m196.47,27.27c-.33.72-.77,1.33-1.32,1.83-.55.5-1.21.89-1.98,1.17-.77.27-1.61.41-2.54.41-.73,0-1.41-.1-2.03-.29-.62-.19-1.18-.47-1.68-.82-.46-.33-.86-.74-1.21-1.21-.35-.47-.65-.99-.9-1.56-.24-.57-.42-1.2-.54-1.88s-.19-1.41-.19-2.17v-2.39c0-.72.06-1.4.17-2.04.11-.65.29-1.25.51-1.8.26-.68.6-1.28,1.03-1.81s.9-.98,1.44-1.34c.48-.31,1.01-.55,1.58-.71.57-.17,1.19-.25,1.85-.25.98,0,1.84.14,2.61.41.76.28,1.41.67,1.95,1.18s.96,1.14,1.27,1.88.5,1.57.59,2.5h-3.42c-.03-.53-.11-.99-.24-1.39-.13-.4-.31-.73-.54-1-.24-.26-.55-.46-.91-.59-.36-.13-.8-.2-1.3-.2-.27,0-.52.03-.75.09-.23.06-.45.14-.64.26-.33.2-.62.47-.85.84-.23.36-.42.78-.56,1.26-.11.37-.18.79-.23,1.24-.05.45-.07.94-.07,1.46v2.42c0,.71.04,1.34.12,1.9.08.56.2,1.04.36,1.46.11.29.25.54.41.76.16.22.34.4.54.55.22.16.47.28.74.36.27.08.58.12.91.12.45,0,.85-.06,1.21-.17s.66-.29.92-.54c.25-.24.45-.56.6-.94.15-.38.24-.84.27-1.38h3.43c-.06.9-.25,1.7-.58,2.42Z"/>
      <path class="cls-1" d="m207.07,15.44v14.98h-3.44v-14.98h-5.41v-2.79h14.33v2.79h-5.48Z"/>
    </g>
    <path class="cls-1" d="m17.54,23.9v-6.37h8.77v6.37c0,.49-.24.94-.65,1.22l-3.73,2.49-3.73-2.49c-.41-.27-.65-.73-.65-1.22Zm-4.38-10.75v10.75c0,1.95.98,3.78,2.6,4.86l6.17,4.11,6.17-4.11c1.63-1.08,2.6-2.91,2.6-4.86v-10.75H13.15Zm9.68-8.77h18.82c1.21,0,2.19.98,2.19,2.19v30.69c0,1.21-.98,2.19-2.19,2.19H2.19c-1.21,0-2.19-.98-2.19-2.19V2.19C0,.98.98,0,2.19,0h16.25l4.38,4.38Z"/>
  </g>
</svg>